{"title":"Die Herbstzeitlosen [TVRip][SCHWEIZERDEUTSCH][Xvid]","uid":6932569,"size":642915314,"categoryP":"video","categoryS":"movies","magnet":"?xt=urn:btih:f367160532f8efee8ccb63457dc38dc7ec46091f&amp;dn=Die+Herbstzeitlosen+%5BTVRip%5D%5BSCHWEIZERDEUTSCH%5D%5BXvid%5D&amp;tr=udp%3A%2F%2Ftracker.openbittorrent.com%3A80&amp;tr=udp%3A%2F%2Fopen.demonii.com%3A1337&amp;tr=udp%3A%2F%2Ftracker.coppersurfer.tk%3A6969&amp;tr=udp%3A%2F%2Fexodus.desync.com%3A6969","seeders":0,"leechers":1,"uploader":"khunrah","files":1,"time":1325706477,"description":"Die Herbstzeitlosen (aufgenommen von SF1 am 01.01.2010 - ohne Werbung) mit:\n\nStephanie Glaser\nHanspeter MÃƒÂ¼ller-Drossaart\n\n &lt;a href=&quot;\nhttp://www.shop.sf.tv/Produkte/Spielfilme/Schweizer-Film/Die-Herbstzeitlosen&quot; rel=&quot;nofollow&quot; target=&quot;_NEW&quot;&gt;\nhttp://www.shop.sf.tv/Produkte/Spielfilme/Schweizer-Film/Die-Herbstzeitlosen&lt;/a&gt;\n\n\n\n\nGeneral\nComplete name                            : Die Herbstzeitlosen [SF1 01-01-2010].avi\nFormat                                   : AVI\nFormat/Info                              : Audio Video Interleave\nFile size                                : 613 MiB\nDuration                                 : 1h 26mn\nOverall bit rate                         : 995 Kbps\n\nVideo\nID                                       : 0\nFormat                                   : MPEG-4 Visual\nFormat profile                           : Advanced Simple@L5\nFormat settings, BVOP                    : 2\nFormat settings, QPel                    : No\nFormat settings, GMC                     : No warppoints\nFormat settings, Matrix                  : Default (H.263)\nCodec ID                                 : XVID\nCodec ID/Hint                            : XviD\nDuration                                 : 1h 26mn\nBit rate                                 : 854 Kbps\nWidth                                    : 640 pixels\nHeight                                   : 480 pixels\nDisplay aspect ratio                     : 4:3\nFrame rate                               : 25.000 fps\nColor space                              : YUV\nChroma subsampling                       : 4:2:0\nBit depth                                : 8 bits\nScan type                                : Progressive\nCompression mode                         : Lossy\nBits/(Pixel*Frame)                       : 0.111\nStream size                              : 526 MiB (86%)\nWriting library                          : XviD 63\n\nAudio\nID                                       : 1\nFormat                                   : MPEG Audio\nFormat version                           : Version 1\nFormat profile                           : Layer 3\nCodec ID                                 : 55\nCodec ID/Hint                            : MP3\nDuration                                 : 1h 26mn\nBit rate mode                            : Constant\nBit rate                                 : 128 Kbps\nChannel(s)                               : 2 channels\nSampling rate                            : 48.0 KHz\nCompression mode                         : Lossy\nStream size                              : 78.9 MiB (13%)\nAlignment                                : Split accross interleaves\nInterleave, duration                     : 24 ms (0.60 video frame)\n\n","torrent":{"xt":"urn:btih:f367160532f8efee8ccb63457dc38dc7ec46091f","amp;dn":"Die+Herbstzeitlosen+%5BTVRip%5D%5BSCHWEIZERDEUTSCH%5D%5BXvid%5D","amp;tr":["udp%3A%2F%2Ftracker.openbittorrent.com%3A80","udp%3A%2F%2Fopen.demonii.com%3A1337","udp%3A%2F%2Ftracker.coppersurfer.tk%3A6969","udp%3A%2F%2Fexodus.desync.com%3A6969"],"infoHash":"f367160532f8efee8ccb63457dc38dc7ec46091f","infoHashBuffer":{"type":"Buffer","data":[243,103,22,5,50,248,239,238,140,203,99,69,125,195,141,199,236,70,9,31]},"announce":[],"urlList":[]}}